<svg width="1290" height="91" viewBox="0 0 1290 91" fill="none" xmlns="http://www.w3.org/2000/svg">
<path d="M733.267 63.8929C741.27 63.5575 749.167 61.1577 756.04 57.0531C748.046 62.0716 738.574 64.7493 729.126 64.5086C721.595 73.9703 707.964 75.7983 696.783 73.1195C687.653 70.9936 679.442 65.851 672.858 59.263C663.859 50.2913 657.828 38.8464 652.933 27.2442C652.521 30.4188 652.456 33.5804 652.504 36.8058C652.43 36.074 652.363 35.3446 652.302 34.6174C652.211 36.1645 652.147 37.726 652.116 39.3052C651.81 37.5487 651.545 35.8042 651.315 34.0698C651.311 34.335 651.307 34.6003 651.305 34.8662C650.843 29.6993 650.237 24.4754 650.006 19.3317C649.877 17.611 652.032 16.5793 653.303 17.7277C656.591 21.7453 659.549 25.9279 663.184 29.5099C662.988 29.3516 662.792 29.1917 662.597 29.0317C663.681 30.2431 664.779 31.423 665.893 32.5631C664.698 31.7671 663.509 30.9343 662.325 30.0732C662.813 30.5545 663.302 31.0299 663.794 31.4987C661.375 29.5706 658.973 27.508 656.514 25.5936C662.035 39.976 670.071 54.1706 682.979 63.1085C689.011 67.3031 696.114 70.0656 703.459 70.6668C711.028 71.2711 719.294 69.5553 724.895 64.1586C717.659 63.1606 710.626 59.1625 707.998 52.0373C707.124 49.646 706.858 46.9965 707.463 44.5091C708.45 40.298 711.674 36.4899 715.974 35.4618C719.423 34.627 723.086 35.7863 725.854 37.8675C732.959 43.1399 734.955 53.6724 731.044 61.461C737.663 61.5047 744.258 60.054 750.287 57.3046C744.24 60.2506 737.519 61.8875 730.781 61.9665C730.761 62.0048 730.739 62.0427 730.718 62.0809C742.475 62.402 754.253 58.0253 763 50.1639C754.247 58.8633 741.947 63.9006 729.599 63.8673C729.59 63.879 729.582 63.8908 729.574 63.9025C730.805 63.951 732.036 63.9437 733.267 63.8929ZM716.93 58.019C720.019 59.9805 723.655 60.8796 727.264 61.255C731.41 54.8236 730.071 45.1958 723.872 40.5343C721.792 38.9701 719.059 38.0187 716.493 38.7339C714.352 39.3183 712.598 40.9715 711.548 42.9027C708.477 48.3703 712.011 55.002 716.93 58.019Z" fill="#FAFCFF" fill-opacity="0.3"/>
<path d="M784.06 53.9422C783.767 53.9422 783.52 53.8289 783.32 53.6022C783.133 53.3755 783.04 53.0022 783.04 52.4822C783.04 52.3089 783.06 52.1222 783.1 51.9222C783.14 51.7089 783.213 51.4955 783.32 51.2822C782.653 49.6289 782.093 48.0222 781.64 46.4622C781.187 44.9022 780.8 43.2689 780.48 41.5622C780.053 42.4422 779.647 43.3555 779.26 44.3022C778.887 45.2355 778.533 46.1489 778.2 47.0422C777.867 47.9355 777.567 48.7689 777.3 49.5422C777.033 50.3155 776.8 50.9822 776.6 51.5422C776.387 52.2089 776.173 52.6555 775.96 52.8822C775.747 53.1222 775.527 53.2422 775.3 53.2422C774.993 53.2422 774.76 53.1689 774.6 53.0222C774.453 52.8755 774.38 52.6155 774.38 52.2422C774.38 51.9622 774.453 51.5289 774.6 50.9422C774.747 50.3555 774.947 49.6755 775.2 48.9022C775.467 48.1289 775.767 47.3155 776.1 46.4622C776.433 45.6089 776.787 44.7755 777.16 43.9622C777.547 43.1489 777.933 42.4155 778.32 41.7622C778.707 41.0955 779.073 40.5689 779.42 40.1822C779.78 39.7822 780.107 39.5822 780.4 39.5822C780.707 39.5822 780.967 39.6422 781.18 39.7622C781.407 39.8822 781.653 40.1955 781.92 40.7022C782.093 41.0489 782.293 41.5555 782.52 42.2222C782.747 42.8755 782.973 43.6155 783.2 44.4422C783.427 45.2555 783.647 46.0955 783.86 46.9622C784.073 47.8155 784.26 48.6089 784.42 49.3422C784.953 46.8755 785.42 44.7155 785.82 42.8622C786.22 40.9955 786.527 39.5355 786.74 38.4822C786.967 37.4289 787.087 36.8755 787.1 36.8222C787.18 36.4755 787.267 36.2622 787.36 36.1822C787.453 36.1022 787.587 36.0622 787.76 36.0622C788 36.0622 788.233 36.1622 788.46 36.3622C788.7 36.5489 788.82 36.8089 788.82 37.1422C788.82 37.3022 788.78 37.6689 788.7 38.2422C788.633 38.8155 788.527 39.5355 788.38 40.4022C788.247 41.2555 788.073 42.2089 787.86 43.2622C787.647 44.3022 787.4 45.3889 787.12 46.5222C786.84 47.6422 786.527 48.7555 786.18 49.8622C785.847 50.9555 785.48 51.9889 785.08 52.9622C784.933 53.3355 784.76 53.5889 784.56 53.7222C784.373 53.8689 784.207 53.9422 784.06 53.9422ZM794.657 52.9422C793.87 52.9422 793.25 52.6422 792.797 52.0422C792.343 51.4422 792.117 50.6622 792.117 49.7022C792.117 49.3555 792.163 48.9889 792.257 48.6022C792.363 48.2022 792.497 47.8422 792.657 47.5222C792.563 47.4289 792.49 47.3022 792.437 47.1422C792.383 46.9689 792.357 46.7555 792.357 46.5022C792.357 45.7155 792.49 44.9955 792.757 44.3422C793.023 43.6889 793.377 43.1222 793.817 42.6422C794.257 42.1489 794.743 41.7689 795.277 41.5022C795.823 41.2355 796.377 41.1022 796.937 41.1022C797.857 41.1022 798.603 41.4355 799.177 42.1022C799.75 42.7555 800.037 43.7555 800.037 45.1022C800.037 45.8089 799.93 46.5289 799.717 47.2622C799.517 47.9955 799.237 48.7022 798.877 49.3822C798.53 50.0622 798.123 50.6689 797.657 51.2022C797.203 51.7355 796.717 52.1622 796.197 52.4822C795.69 52.7889 795.177 52.9422 794.657 52.9422ZM793.977 46.8422C794.057 46.9489 794.097 47.0889 794.097 47.2622C794.097 47.4622 794.057 47.6622 793.977 47.8622C793.91 48.0622 793.837 48.3355 793.757 48.6822C793.677 49.0289 793.637 49.5222 793.637 50.1622C793.637 50.8022 793.89 51.1222 794.397 51.1222C794.957 51.1222 795.477 50.9022 795.957 50.4622C796.437 50.0089 796.863 49.4289 797.237 48.7222C797.61 48.0155 797.897 47.2622 798.097 46.4622C798.31 45.6489 798.417 44.8822 798.417 44.1622C798.417 43.6955 798.33 43.3689 798.157 43.1822C797.983 42.9822 797.67 42.8822 797.217 42.8822C796.75 42.8822 796.263 43.0422 795.757 43.3622C795.263 43.6689 794.85 44.0889 794.517 44.6222C794.183 45.1555 794.017 45.7555 794.017 46.4222C794.017 46.5689 794.003 46.7089 793.977 46.8422ZM815.65 53.1822C815.357 53.1822 815.13 53.0955 814.97 52.9222C814.823 52.7622 814.75 52.5755 814.75 52.3622C814.75 52.1755 814.83 52.0022 814.99 51.8422C815.163 51.6689 815.397 51.5155 815.69 51.3822C816.223 51.1022 816.723 50.8222 817.19 50.5422C817.67 50.2622 818.057 49.9622 818.35 49.6422C818.643 49.3222 818.79 48.9822 818.79 48.6222C818.79 48.3155 818.69 48.0822 818.49 47.9222C818.29 47.7489 818.017 47.6622 817.67 47.6622C817.47 47.6622 817.19 47.7022 816.83 47.7822C816.47 47.8489 816.077 47.9289 815.65 48.0222C815.237 48.1022 814.83 48.1822 814.43 48.2622C814.03 48.3289 813.69 48.3622 813.41 48.3622C812.903 48.3622 812.523 48.2422 812.27 48.0022C812.017 47.7489 811.89 47.4089 811.89 46.9822C811.89 46.7689 812.017 46.4489 812.27 46.0222C812.523 45.5955 812.857 45.1222 813.27 44.6022C813.697 44.0689 814.163 43.5355 814.67 43.0022C815.177 42.4689 815.69 41.9755 816.21 41.5222C816.743 41.0689 817.237 40.7022 817.69 40.4222C818.157 40.1422 818.543 40.0022 818.85 40.0022C819.157 40.0022 819.39 40.1022 819.55 40.3022C819.71 40.5022 819.79 40.7555 819.79 41.0622C819.79 41.3022 819.75 41.5089 819.67 41.6822C819.59 41.8422 819.423 41.9689 819.17 42.0622C818.93 42.1555 818.557 42.2089 818.05 42.2222C817.53 42.6355 816.977 43.1089 816.39 43.6422C815.817 44.1622 815.29 44.7022 814.81 45.2622C814.343 45.8089 814.003 46.3355 813.79 46.8422C814.23 46.6955 814.763 46.5689 815.39 46.4622C816.03 46.3422 816.677 46.2822 817.33 46.2822C818.357 46.2822 819.117 46.5155 819.61 46.9822C820.117 47.4355 820.37 48.0355 820.37 48.7822C820.37 49.2622 820.217 49.7622 819.91 50.2822C819.617 50.7889 819.23 51.2622 818.75 51.7022C818.27 52.1422 817.757 52.4955 817.21 52.7622C816.663 53.0422 816.143 53.1822 815.65 53.1822ZM823.476 52.8422C823.223 52.8422 822.996 52.7489 822.796 52.5622C822.596 52.3622 822.496 52.0555 822.496 51.6422C822.496 51.3489 822.536 50.9422 822.616 50.4222C822.696 49.8889 822.803 49.3089 822.936 48.6822C823.069 48.0555 823.209 47.4355 823.356 46.8222C823.516 46.1955 823.676 45.6355 823.836 45.1422C823.996 44.6489 824.136 44.2822 824.256 44.0422C824.363 43.8555 824.463 43.7355 824.556 43.6822C824.663 43.6289 824.763 43.6022 824.856 43.6022C825.043 43.6022 825.203 43.6622 825.336 43.7822C825.483 43.9022 825.556 44.1355 825.556 44.4822C825.556 44.6822 825.516 45.0155 825.436 45.4822C825.369 45.9355 825.276 46.4689 825.156 47.0822C825.049 47.6822 824.929 48.3022 824.796 48.9422C824.676 49.5689 824.556 50.1689 824.436 50.7422C824.316 51.3155 824.223 51.7955 824.156 52.1822C824.103 52.3955 824.009 52.5622 823.876 52.6822C823.756 52.7889 823.623 52.8422 823.476 52.8422ZM825.436 41.7822C825.129 41.7822 824.836 41.6889 824.556 41.5022C824.289 41.3155 824.156 41.0155 824.156 40.6022C824.156 40.2555 824.236 39.9755 824.396 39.7622C824.569 39.5489 824.769 39.3955 824.996 39.3022C825.236 39.1955 825.443 39.1422 825.616 39.1422C825.789 39.1422 825.983 39.1822 826.196 39.2622C826.423 39.3289 826.616 39.4622 826.776 39.6622C826.936 39.8489 827.016 40.1289 827.016 40.5022C827.016 40.7555 826.929 40.9822 826.756 41.1822C826.583 41.3689 826.369 41.5155 826.116 41.6222C825.876 41.7289 825.649 41.7822 825.436 41.7822ZM829.359 58.0222C828.333 58.0222 827.579 57.9222 827.099 57.7222C826.619 57.5222 826.379 57.2555 826.379 56.9222C826.379 56.7089 826.446 56.5355 826.579 56.4022C826.726 56.2689 826.906 56.2022 827.119 56.2022C827.346 56.2022 827.673 56.2355 828.099 56.3022C828.526 56.3822 828.946 56.4222 829.359 56.4222C830.733 56.4222 831.859 56.0155 832.739 55.2022C833.619 54.3889 834.293 53.1422 834.759 51.4622C835.226 49.7689 835.539 47.6089 835.699 44.9822C835.299 45.7955 834.846 46.6089 834.339 47.4222C833.846 48.2222 833.313 48.9555 832.739 49.6222C832.179 50.2755 831.599 50.8022 830.999 51.2022C830.399 51.6022 829.806 51.8022 829.219 51.8022C828.659 51.8022 828.246 51.6622 827.979 51.3822C827.726 51.1022 827.599 50.6422 827.599 50.0022C827.599 49.4289 827.759 48.8222 828.079 48.1822C828.399 47.5289 828.826 46.8755 829.359 46.2222C829.893 45.5689 830.479 44.9489 831.119 44.3622C831.759 43.7622 832.399 43.2355 833.039 42.7822C833.693 42.3155 834.299 41.9489 834.859 41.6822C835.419 41.4155 835.873 41.2822 836.219 41.2822C836.566 41.2822 836.833 41.4022 837.019 41.6422C837.206 41.8822 837.299 42.3355 837.299 43.0022C837.299 44.5622 837.246 46.0822 837.139 47.5622C837.046 49.0289 836.853 50.3955 836.559 51.6622C836.266 52.9289 835.826 54.0355 835.239 54.9822C834.666 55.9422 833.899 56.6889 832.939 57.2222C831.979 57.7555 830.786 58.0222 829.359 58.0222ZM835.339 43.0222C834.673 43.4489 833.986 43.9289 833.279 44.4622C832.573 44.9955 831.913 45.5622 831.299 46.1622C830.699 46.7622 830.213 47.3822 829.839 48.0222C829.466 48.6622 829.279 49.3022 829.279 49.9422C829.279 50.1422 829.406 50.2422 829.659 50.2422C829.859 50.2422 830.133 50.0889 830.479 49.7822C830.839 49.4622 831.239 49.0422 831.679 48.5222C832.119 47.9889 832.566 47.4089 833.019 46.7822C833.486 46.1422 833.919 45.4955 834.319 44.8422C834.719 44.1889 835.059 43.5822 835.339 43.0222ZM842.445 52.2822C842.058 52.2822 841.712 52.0622 841.405 51.6222C841.098 51.1822 840.945 50.6155 840.945 49.9222C840.945 49.1622 841.045 48.3489 841.245 47.4822C841.458 46.6155 841.718 45.7355 842.025 44.8422C842.332 43.9355 842.632 43.0622 842.925 42.2222C842.992 42.0489 843.085 41.9222 843.205 41.8422C843.338 41.7489 843.538 41.7022 843.805 41.7022C844.285 41.7022 844.525 41.9355 844.525 42.4022C844.525 42.5089 844.472 42.7489 844.365 43.1222C844.258 43.4955 844.118 43.9555 843.945 44.5022C843.785 45.0489 843.618 45.6422 843.445 46.2822C843.272 46.9089 843.118 47.5422 842.985 48.1822C842.852 48.8222 842.758 49.4155 842.705 49.9622C842.918 49.7355 843.158 49.3889 843.425 48.9222C843.705 48.4555 844.005 47.9289 844.325 47.3422C844.645 46.7422 844.978 46.1422 845.325 45.5422C845.672 44.9289 846.018 44.3689 846.365 43.8622C846.725 43.3422 847.072 42.9289 847.405 42.6222C847.752 42.3022 848.072 42.1422 848.365 42.1422C848.792 42.1422 849.152 42.2755 849.445 42.5422C849.752 42.7955 849.985 43.2489 850.145 43.9022C850.318 44.5422 850.405 45.4489 850.405 46.6222C850.405 47.2489 850.465 47.8355 850.585 48.3822C850.718 48.9289 850.925 49.3689 851.205 49.7022C851.498 50.0222 851.872 50.1822 852.325 50.1822C853.005 50.1822 853.612 50.0622 854.145 49.8222C854.678 49.5689 855.138 49.2889 855.525 48.9822C855.925 48.6622 856.258 48.3822 856.525 48.1422C856.792 47.8889 856.998 47.7622 857.145 47.7622C857.452 47.7622 857.605 47.9222 857.605 48.2422C857.605 48.3755 857.505 48.5889 857.305 48.8822C857.118 49.1622 856.852 49.4822 856.505 49.8422C856.172 50.1889 855.785 50.5289 855.345 50.8622C854.918 51.1822 854.458 51.4489 853.965 51.6622C853.485 51.8755 852.998 51.9822 852.505 51.9822C851.585 51.9822 850.832 51.8022 850.245 51.4422C849.672 51.0822 849.245 50.4889 848.965 49.6622C848.698 48.8355 848.565 47.7289 848.565 46.3422C848.565 45.5822 848.518 45.0289 848.425 44.6822C848.345 44.3222 848.192 44.0822 847.965 43.9622C847.805 44.2422 847.598 44.6422 847.345 45.1622C847.092 45.6689 846.798 46.2355 846.465 46.8622C846.145 47.4889 845.805 48.1222 845.445 48.7622C845.098 49.3889 844.745 49.9689 844.385 50.5022C844.025 51.0355 843.678 51.4689 843.345 51.8022C843.012 52.1222 842.712 52.2822 842.445 52.2822ZM872.191 53.2222C871.965 53.2222 871.771 53.1222 871.611 52.9222C871.451 52.7222 871.371 52.4289 871.371 52.0422C871.371 51.5889 871.438 50.9422 871.571 50.1022C871.718 49.2622 871.931 48.1489 872.211 46.7622C871.851 47.6155 871.451 48.4222 871.011 49.1822C870.585 49.9422 870.131 50.5622 869.651 51.0422C869.171 51.5222 868.678 51.7622 868.171 51.7622C867.678 51.7622 867.238 51.5689 866.851 51.1822C866.478 50.7955 866.291 50.1155 866.291 49.1422C866.291 48.5955 866.338 47.9822 866.431 47.3022C866.525 46.6089 866.645 45.9222 866.791 45.2422C866.938 44.5622 867.085 43.9555 867.231 43.4222C867.378 42.8755 867.511 42.4755 867.631 42.2222C867.725 42.0089 867.818 41.8689 867.911 41.8022C868.005 41.7222 868.131 41.6822 868.291 41.6822C868.478 41.6822 868.678 41.7622 868.891 41.9222C869.105 42.0822 869.211 42.3489 869.211 42.7222C869.211 42.8155 869.165 43.0355 869.071 43.3822C868.991 43.7155 868.885 44.1289 868.751 44.6222C868.631 45.1022 868.505 45.6222 868.371 46.1822C868.238 46.7422 868.125 47.3022 868.031 47.8622C867.951 48.4222 867.911 48.9355 867.911 49.4022C867.911 49.6555 867.938 49.8622 867.991 50.0222C868.045 50.1822 868.178 50.2622 868.391 50.2622C868.578 50.2622 868.811 50.0755 869.091 49.7022C869.385 49.3289 869.698 48.8355 870.031 48.2222C870.378 47.5955 870.731 46.9022 871.091 46.1422C871.465 45.3822 871.825 44.6022 872.171 43.8022C872.531 43.0022 872.858 42.2422 873.151 41.5222C873.258 41.2822 873.371 41.1355 873.491 41.0822C873.611 41.0155 873.745 40.9822 873.891 40.9822C874.131 40.9822 874.345 41.0822 874.531 41.2822C874.731 41.4689 874.831 41.7155 874.831 42.0222C874.831 42.2222 874.791 42.5689 874.711 43.0622C874.645 43.5555 874.545 44.1355 874.411 44.8022C874.291 45.4555 874.151 46.1489 873.991 46.8822C873.845 47.6155 873.698 48.3422 873.551 49.0622C873.405 49.7689 873.265 50.4155 873.131 51.0022C873.011 51.5889 872.911 52.0622 872.831 52.4222C872.765 52.7555 872.671 52.9689 872.551 53.0622C872.445 53.1689 872.325 53.2222 872.191 53.2222ZM877.434 58.6822C877.207 58.6822 877.027 58.6022 876.894 58.4422C876.774 58.2822 876.714 57.9755 876.714 57.5222C876.714 56.8689 876.761 56.1089 876.854 55.2422C876.947 54.3755 877.074 53.4555 877.234 52.4822C877.407 51.5089 877.594 50.5355 877.794 49.5622C878.007 48.5889 878.227 47.6622 878.454 46.7822C878.694 45.9022 878.927 45.1222 879.154 44.4422C879.381 43.7489 879.587 43.2022 879.774 42.8022C879.974 42.4022 880.147 42.2022 880.294 42.2022C880.547 42.2022 880.747 42.2755 880.894 42.4222C881.054 42.5689 881.134 42.7889 881.134 43.0822C881.134 43.4555 881.021 44.0622 880.794 44.9022C880.567 45.7289 880.274 46.8089 879.914 48.1422C880.247 47.5289 880.607 46.8889 880.994 46.2222C881.381 45.5555 881.787 44.9089 882.214 44.2822C882.641 43.6422 883.067 43.0689 883.494 42.5622C883.934 42.0555 884.361 41.6489 884.774 41.3422C885.187 41.0355 885.587 40.8822 885.974 40.8822C886.387 40.8822 886.754 41.0155 887.074 41.2822C887.394 41.5355 887.641 41.8822 887.814 42.3222C888.001 42.7489 888.094 43.2289 888.094 43.7622C888.094 44.8689 887.907 45.9422 887.534 46.9822C887.161 48.0089 886.641 48.9355 885.974 49.7622C885.321 50.5755 884.547 51.2222 883.654 51.7022C882.774 52.1822 881.821 52.4222 880.794 52.4222C880.407 52.4222 880.061 52.4022 879.754 52.3622C879.447 52.3222 879.181 52.2755 878.954 52.2222C878.794 53.1022 878.641 54.0089 878.494 54.9422C878.347 55.8755 878.201 56.8689 878.054 57.9222C878.014 58.2022 877.947 58.3955 877.854 58.5022C877.761 58.6222 877.621 58.6822 877.434 58.6822ZM886.334 42.4022C886.054 42.4022 885.721 42.5622 885.334 42.8822C884.961 43.2022 884.554 43.6289 884.114 44.1622C883.687 44.6822 883.254 45.2622 882.814 45.9022C882.374 46.5289 881.947 47.1689 881.534 47.8222C881.121 48.4755 880.741 49.0822 880.394 49.6422C880.061 50.2022 879.787 50.6689 879.574 51.0422C880.614 51.0155 881.527 50.8089 882.314 50.4222C883.101 50.0222 883.774 49.5155 884.334 48.9022C884.894 48.2755 885.347 47.6022 885.694 46.8822C886.054 46.1489 886.314 45.4422 886.474 44.7622C886.634 44.0689 886.714 43.4689 886.714 42.9622C886.714 42.5889 886.587 42.4022 886.334 42.4022ZM901.199 53.1222C900.986 53.1222 900.806 53.0355 900.659 52.8622C900.512 52.6889 900.439 52.4489 900.439 52.1422C900.439 51.9155 900.486 51.5422 900.579 51.0222C900.686 50.4889 900.799 49.8689 900.919 49.1622C901.052 48.4555 901.166 47.7222 901.259 46.9622C901.352 46.1889 901.399 45.4489 901.399 44.7422C901.399 44.3955 901.486 44.1422 901.659 43.9822C901.846 43.8089 902.052 43.7222 902.279 43.7222C902.492 43.7222 902.652 43.8555 902.759 44.1222C902.866 44.3889 902.886 44.9222 902.819 45.7222C903.432 44.3622 904.106 43.2689 904.839 42.4422C905.586 41.6022 906.326 41.0022 907.059 40.6422C907.792 40.2689 908.452 40.0822 909.039 40.0822C909.426 40.0822 909.706 40.1622 909.879 40.3222C910.066 40.4689 910.159 40.6355 910.159 40.8222C910.159 41.0755 910.052 41.2755 909.839 41.4222C909.639 41.5555 909.286 41.7155 908.779 41.9022C908.192 42.1289 907.652 42.3955 907.159 42.7022C906.679 42.9955 906.219 43.3822 905.779 43.8622C905.352 44.3422 904.932 44.9555 904.519 45.7022C904.106 46.4355 903.692 47.3422 903.279 48.4222C902.866 49.5022 902.426 50.8022 901.959 52.3222C901.879 52.6155 901.772 52.8222 901.639 52.9422C901.519 53.0622 901.372 53.1222 901.199 53.1222ZM917.198 44.1222C917.198 44.5489 917.064 44.9689 916.798 45.3822C916.531 45.7822 916.178 46.1689 915.738 46.5422C915.298 46.9022 914.811 47.2422 914.278 47.5622C913.744 47.8822 913.211 48.1622 912.678 48.4022C912.144 48.6422 911.658 48.8355 911.218 48.9822C911.111 49.5022 911.058 49.9622 911.058 50.3622C911.058 50.6155 911.118 50.7955 911.238 50.9022C911.358 51.0089 911.544 51.0622 911.798 51.0622C912.358 51.0622 912.951 50.9622 913.578 50.7622C914.204 50.5622 914.844 50.3022 915.498 49.9822C916.151 49.6622 916.778 49.3222 917.378 48.9622C917.978 48.6022 918.524 48.2622 919.018 47.9422C919.524 47.6222 919.944 47.3622 920.278 47.1622C920.611 46.9622 920.831 46.8622 920.938 46.8622C921.098 46.8622 921.218 46.9155 921.298 47.0222C921.391 47.1155 921.438 47.2289 921.438 47.3622C921.438 47.4689 921.271 47.6755 920.938 47.9822C920.618 48.2889 920.184 48.6489 919.638 49.0622C919.091 49.4622 918.478 49.8755 917.798 50.3022C917.118 50.7289 916.411 51.1289 915.678 51.5022C914.958 51.8755 914.258 52.1755 913.578 52.4022C912.911 52.6289 912.311 52.7422 911.778 52.7422C911.084 52.7422 910.544 52.4822 910.158 51.9622C909.771 51.4422 909.578 50.6355 909.578 49.5422C909.578 48.8089 909.671 48.0689 909.858 47.3222C910.058 46.5755 910.324 45.8622 910.658 45.1822C911.004 44.4889 911.384 43.8755 911.798 43.3422C912.224 42.7955 912.671 42.3689 913.138 42.0622C913.604 41.7422 914.058 41.5822 914.498 41.5822C915.338 41.5822 915.998 41.8155 916.478 42.2822C916.958 42.7489 917.198 43.3622 917.198 44.1222ZM911.638 47.4422C912.051 47.1889 912.478 46.9222 912.918 46.6422C913.358 46.3622 913.764 46.0755 914.138 45.7822C914.511 45.4889 914.811 45.1822 915.038 44.8622C915.278 44.5289 915.398 44.1889 915.398 43.8422C915.398 43.3489 915.131 43.1022 914.598 43.1022C914.264 43.1022 913.911 43.3155 913.538 43.7422C913.178 44.1555 912.831 44.6955 912.498 45.3622C912.164 46.0289 911.878 46.7222 911.638 47.4422ZM926.567 58.8022C926.354 58.8022 926.134 58.6555 925.907 58.3622C925.694 58.0822 925.587 57.7689 925.587 57.4222C925.587 57.3555 925.62 57.1089 925.687 56.6822C925.754 56.2555 925.847 55.6955 925.967 55.0022C926.087 54.3089 926.22 53.5422 926.367 52.7022C926.527 51.8489 926.687 50.9689 926.847 50.0622C927.007 49.1555 927.16 48.2755 927.307 47.4222C927.467 46.5689 927.614 45.7889 927.747 45.0822C927.32 46.0289 926.874 46.9622 926.407 47.8822C925.94 48.7889 925.46 49.6155 924.967 50.3622C924.474 51.1089 923.967 51.7022 923.447 52.1422C922.927 52.5822 922.414 52.8022 921.907 52.8022C921.187 52.8022 920.64 52.5889 920.267 52.1622C919.894 51.7222 919.707 51.1622 919.707 50.4822C919.707 49.7755 919.874 49.0422 920.207 48.2822C920.54 47.5089 920.98 46.7489 921.527 46.0022C922.087 45.2422 922.7 44.5289 923.367 43.8622C924.034 43.1955 924.7 42.6022 925.367 42.0822C926.034 41.5622 926.654 41.1555 927.227 40.8622C927.8 40.5555 928.267 40.4022 928.627 40.4022C928.987 40.4022 929.254 40.4822 929.427 40.6422C929.6 40.7889 929.687 41.0555 929.687 41.4422C929.687 41.6955 929.647 42.1489 929.567 42.8022C929.5 43.4422 929.4 44.2089 929.267 45.1022C929.147 45.9955 929.007 46.9622 928.847 48.0022C928.7 49.0289 928.547 50.0622 928.387 51.1022C928.227 52.1289 928.074 53.1089 927.927 54.0422C927.78 54.9755 927.647 55.7889 927.527 56.4822C927.42 57.1755 927.34 57.6889 927.287 58.0222C927.234 58.3155 927.147 58.5155 927.027 58.6222C926.907 58.7422 926.754 58.8022 926.567 58.8022ZM921.527 51.1822C921.887 51.1822 922.28 50.9822 922.707 50.5822C923.147 50.1822 923.594 49.6555 924.047 49.0022C924.514 48.3489 924.974 47.6289 925.427 46.8422C925.88 46.0422 926.3 45.2422 926.687 44.4422C927.087 43.6422 927.434 42.9089 927.727 42.2422C927.007 42.7355 926.267 43.3155 925.507 43.9822C924.76 44.6489 924.06 45.3622 923.407 46.1222C922.767 46.8822 922.247 47.6622 921.847 48.4622C921.46 49.2622 921.267 50.0489 921.267 50.8222C921.267 51.0622 921.354 51.1822 921.527 51.1822ZM938.793 53.2222C938.566 53.2222 938.373 53.1222 938.213 52.9222C938.053 52.7222 937.973 52.4289 937.973 52.0422C937.973 51.5889 938.04 50.9422 938.173 50.1022C938.32 49.2622 938.533 48.1489 938.813 46.7622C938.453 47.6155 938.053 48.4222 937.613 49.1822C937.186 49.9422 936.733 50.5622 936.253 51.0422C935.773 51.5222 935.28 51.7622 934.773 51.7622C934.28 51.7622 933.84 51.5689 933.453 51.1822C933.08 50.7955 932.893 50.1155 932.893 49.1422C932.893 48.5955 932.94 47.9822 933.033 47.3022C933.126 46.6089 933.246 45.9222 933.393 45.2422C933.54 44.5622 933.686 43.9555 933.833 43.4222C933.98 42.8755 934.113 42.4755 934.233 42.2222C934.326 42.0089 934.42 41.8689 934.513 41.8022C934.606 41.7222 934.733 41.6822 934.893 41.6822C935.08 41.6822 935.28 41.7622 935.493 41.9222C935.706 42.0822 935.813 42.3489 935.813 42.7222C935.813 42.8155 935.766 43.0355 935.673 43.3822C935.593 43.7155 935.486 44.1289 935.353 44.6222C935.233 45.1022 935.106 45.6222 934.973 46.1822C934.84 46.7422 934.726 47.3022 934.633 47.8622C934.553 48.4222 934.513 48.9355 934.513 49.4022C934.513 49.6555 934.54 49.8622 934.593 50.0222C934.646 50.1822 934.78 50.2622 934.993 50.2622C935.18 50.2622 935.413 50.0755 935.693 49.7022C935.986 49.3289 936.3 48.8355 936.633 48.2222C936.98 47.5955 937.333 46.9022 937.693 46.1422C938.066 45.3822 938.426 44.6022 938.773 43.8022C939.133 43.0022 939.46 42.2422 939.753 41.5222C939.86 41.2822 939.973 41.1355 940.093 41.0822C940.213 41.0155 940.346 40.9822 940.493 40.9822C940.733 40.9822 940.946 41.0822 941.133 41.2822C941.333 41.4689 941.433 41.7155 941.433 42.0222C941.433 42.2222 941.393 42.5689 941.313 43.0622C941.246 43.5555 941.146 44.1355 941.013 44.8022C940.893 45.4555 940.753 46.1489 940.593 46.8822C940.446 47.6155 940.3 48.3422 940.153 49.0622C940.006 49.7689 939.866 50.4155 939.733 51.0022C939.613 51.5889 939.513 52.0622 939.433 52.4222C939.366 52.7555 939.273 52.9689 939.153 53.0622C939.046 53.1689 938.926 53.2222 938.793 53.2222ZM944.648 52.8422C944.395 52.8422 944.168 52.7489 943.968 52.5622C943.768 52.3622 943.668 52.0555 943.668 51.6422C943.668 51.3489 943.708 50.9422 943.788 50.4222C943.868 49.8889 943.975 49.3089 944.108 48.6822C944.241 48.0555 944.381 47.4355 944.528 46.8222C944.688 46.1955 944.848 45.6355 945.008 45.1422C945.168 44.6489 945.308 44.2822 945.428 44.0422C945.535 43.8555 945.635 43.7355 945.728 43.6822C945.835 43.6289 945.935 43.6022 946.028 43.6022C946.215 43.6022 946.375 43.6622 946.508 43.7822C946.655 43.9022 946.728 44.1355 946.728 44.4822C946.728 44.6822 946.688 45.0155 946.608 45.4822C946.541 45.9355 946.448 46.4689 946.328 47.0822C946.221 47.6822 946.101 48.3022 945.968 48.9422C945.848 49.5689 945.728 50.1689 945.608 50.7422C945.488 51.3155 945.395 51.7955 945.328 52.1822C945.275 52.3955 945.181 52.5622 945.048 52.6822C944.928 52.7889 944.795 52.8422 944.648 52.8422ZM946.608 41.7822C946.301 41.7822 946.008 41.6889 945.728 41.5022C945.461 41.3155 945.328 41.0155 945.328 40.6022C945.328 40.2555 945.408 39.9755 945.568 39.7622C945.741 39.5489 945.941 39.3955 946.168 39.3022C946.408 39.1955 946.615 39.1422 946.788 39.1422C946.961 39.1422 947.155 39.1822 947.368 39.2622C947.595 39.3289 947.788 39.4622 947.948 39.6622C948.108 39.8489 948.188 40.1289 948.188 40.5022C948.188 40.7555 948.101 40.9822 947.928 41.1822C947.755 41.3689 947.541 41.5155 947.288 41.6222C947.048 41.7289 946.821 41.7822 946.608 41.7822ZM950.261 53.1222C950.048 53.1222 949.868 53.0355 949.721 52.8622C949.575 52.6889 949.501 52.4489 949.501 52.1422C949.501 51.9155 949.548 51.5422 949.641 51.0222C949.748 50.4889 949.861 49.8689 949.981 49.1622C950.115 48.4555 950.228 47.7222 950.321 46.9622C950.415 46.1889 950.461 45.4489 950.461 44.7422C950.461 44.3955 950.548 44.1422 950.721 43.9822C950.908 43.8089 951.115 43.7222 951.341 43.7222C951.555 43.7222 951.715 43.8555 951.821 44.1222C951.928 44.3889 951.948 44.9222 951.881 45.7222C952.495 44.3622 953.168 43.2689 953.901 42.4422C954.648 41.6022 955.388 41.0022 956.121 40.6422C956.855 40.2689 957.515 40.0822 958.101 40.0822C958.488 40.0822 958.768 40.1622 958.941 40.3222C959.128 40.4689 959.221 40.6355 959.221 40.8222C959.221 41.0755 959.115 41.2755 958.901 41.4222C958.701 41.5555 958.348 41.7155 957.841 41.9022C957.255 42.1289 956.715 42.3955 956.221 42.7022C955.741 42.9955 955.281 43.3822 954.841 43.8622C954.415 44.3422 953.995 44.9555 953.581 45.7022C953.168 46.4355 952.755 47.3422 952.341 48.4222C951.928 49.5022 951.488 50.8022 951.021 52.3222C950.941 52.6155 950.835 52.8222 950.701 52.9422C950.581 53.0622 950.435 53.1222 950.261 53.1222ZM966.26 44.1222C966.26 44.5489 966.127 44.9689 965.86 45.3822C965.594 45.7822 965.24 46.1689 964.8 46.5422C964.36 46.9022 963.874 47.2422 963.34 47.5622C962.807 47.8822 962.274 48.1622 961.74 48.4022C961.207 48.6422 960.72 48.8355 960.28 48.9822C960.174 49.5022 960.12 49.9622 960.12 50.3622C960.12 50.6155 960.18 50.7955 960.3 50.9022C960.42 51.0089 960.607 51.0622 960.86 51.0622C961.42 51.0622 962.014 50.9622 962.64 50.7622C963.267 50.5622 963.907 50.3022 964.56 49.9822C965.214 49.6622 965.84 49.3222 966.44 48.9622C967.04 48.6022 967.587 48.2622 968.08 47.9422C968.587 47.6222 969.007 47.3622 969.34 47.1622C969.674 46.9622 969.894 46.8622 970 46.8622C970.16 46.8622 970.28 46.9155 970.36 47.0222C970.454 47.1155 970.5 47.2289 970.5 47.3622C970.5 47.4689 970.334 47.6755 970 47.9822C969.68 48.2889 969.247 48.6489 968.7 49.0622C968.154 49.4622 967.54 49.8755 966.86 50.3022C966.18 50.7289 965.474 51.1289 964.74 51.5022C964.02 51.8755 963.32 52.1755 962.64 52.4022C961.974 52.6289 961.374 52.7422 960.84 52.7422C960.147 52.7422 959.607 52.4822 959.22 51.9622C958.834 51.4422 958.64 50.6355 958.64 49.5422C958.64 48.8089 958.734 48.0689 958.92 47.3222C959.12 46.5755 959.387 45.8622 959.72 45.1822C960.067 44.4889 960.447 43.8755 960.86 43.3422C961.287 42.7955 961.734 42.3689 962.2 42.0622C962.667 41.7422 963.12 41.5822 963.56 41.5822C964.4 41.5822 965.06 41.8155 965.54 42.2822C966.02 42.7489 966.26 43.3622 966.26 44.1222ZM960.7 47.4422C961.114 47.1889 961.54 46.9222 961.98 46.6422C962.42 46.3622 962.827 46.0755 963.2 45.7822C963.574 45.4889 963.874 45.1822 964.1 44.8622C964.34 44.5289 964.46 44.1889 964.46 43.8422C964.46 43.3489 964.194 43.1022 963.66 43.1022C963.327 43.1022 962.974 43.3155 962.6 43.7422C962.24 44.1555 961.894 44.6955 961.56 45.3622C961.227 46.0289 960.94 46.7222 960.7 47.4422ZM977.242 42.6822C977.602 41.8155 977.942 40.9222 978.262 40.0022C978.596 39.0822 978.896 38.1422 979.162 37.1822C979.242 36.9155 979.362 36.7022 979.522 36.5422C979.696 36.3689 979.896 36.2822 980.122 36.2822C980.282 36.2822 980.416 36.3422 980.522 36.4622C980.642 36.5822 980.702 36.7422 980.702 36.9422C980.702 37.1955 980.602 37.6355 980.402 38.2622C980.216 38.8889 979.976 39.6822 979.682 40.6422C979.402 41.6022 979.116 42.7089 978.822 43.9622C978.542 45.2022 978.302 46.5755 978.102 48.0822C977.916 49.5889 977.822 51.1955 977.822 52.9022C977.822 53.2755 977.742 53.5822 977.582 53.8222C977.422 54.0755 977.229 54.2022 977.002 54.2022C976.869 54.2022 976.742 54.1689 976.622 54.1022C976.502 54.0355 976.396 53.8755 976.302 53.6222C976.222 53.3822 976.156 53.0022 976.102 52.4822C976.049 51.9489 976.022 51.2289 976.022 50.3222C976.022 49.6289 976.062 48.8755 976.142 48.0622C975.529 49.1689 974.862 50.1355 974.142 50.9622C973.436 51.7755 972.749 52.4022 972.082 52.8422C971.429 53.2822 970.869 53.5022 970.402 53.5022C969.829 53.5022 969.362 53.3089 969.002 52.9222C968.656 52.5489 968.482 51.9889 968.482 51.2422C968.482 50.5889 968.636 49.9155 968.942 49.2222C969.249 48.5289 969.656 47.8489 970.162 47.1822C970.669 46.5022 971.229 45.8622 971.842 45.2622C972.456 44.6622 973.069 44.1355 973.682 43.6822C974.309 43.2155 974.889 42.8555 975.422 42.6022C975.956 42.3355 976.389 42.2022 976.722 42.2022C976.856 42.2022 976.976 42.2489 977.082 42.3422C977.189 42.4355 977.242 42.5489 977.242 42.6822ZM976.982 43.3022C976.889 43.3955 976.776 43.4889 976.642 43.5822C976.509 43.6755 976.362 43.7755 976.202 43.8822C975.616 44.2955 974.969 44.7755 974.262 45.3222C973.569 45.8555 972.902 46.4422 972.262 47.0822C971.636 47.7089 971.122 48.3689 970.722 49.0622C970.322 49.7555 970.122 50.4689 970.122 51.2022C970.122 51.5222 970.282 51.6822 970.602 51.6822C971.042 51.6822 971.522 51.4755 972.042 51.0622C972.576 50.6355 973.122 50.0489 973.682 49.3022C974.242 48.5422 974.802 47.6555 975.362 46.6422C975.922 45.6155 976.462 44.5022 976.982 43.3022Z" fill="white" fill-opacity="0.9"/>
</svg>
