<svg width="48" height="48" viewBox="0 0 48 48" fill="none" xmlns="http://www.w3.org/2000/svg">
<g clip-path="url(#clip0_9504_349)">
<path d="M47.4041 9.03006C46.8981 8.78303 46.679 9.25518 46.3841 9.49623C46.2825 9.57393 46.1969 9.67553 46.1112 9.76717C45.3701 10.5581 44.5055 11.076 43.3759 11.0143C41.7244 10.9226 40.3139 11.4406 39.0668 12.7037C38.8019 11.1458 37.9213 10.2174 36.5826 9.61975C35.8813 9.30897 35.1721 9.00018 34.68 8.32483C34.3374 7.84471 34.2437 7.30881 34.0724 6.78287C33.9628 6.46412 33.8533 6.1394 33.4887 6.08561C33.0903 6.02385 32.9349 6.35655 32.7795 6.63545C32.1559 7.77498 31.9149 9.03006 31.9388 10.3011C31.9926 13.1619 33.1998 15.4409 35.6004 17.0606C35.8733 17.2458 35.9431 17.4331 35.8574 17.704C35.694 18.2619 35.4988 18.8037 35.3275 19.3635C35.2179 19.7201 35.0546 19.7958 34.6721 19.6424C33.3796 19.087 32.2056 18.289 31.2136 17.2917C29.5063 15.6421 27.9644 13.8213 26.0399 12.3949C25.594 12.0654 25.1362 11.7524 24.6673 11.4565C22.705 9.55002 24.9263 7.98416 25.4403 7.79889C25.9781 7.60365 25.6255 6.93826 23.8883 6.94623C22.1512 6.9542 20.5614 7.53393 18.5353 8.30889C18.2343 8.42426 17.9245 8.51552 17.609 8.58182C15.7156 8.22508 13.7793 8.15658 11.8655 8.37862C8.11021 8.79698 5.11197 10.574 2.90662 13.6041C0.257009 17.2458 -0.366546 21.3856 0.396462 25.7007C1.19931 30.2508 3.5222 34.0181 7.09021 36.9625C10.7917 40.0165 15.053 41.5127 19.9159 41.2258C22.8683 41.0565 26.1574 40.66 29.8649 37.5203C30.8012 37.9865 31.7814 38.1718 33.411 38.3112C34.6661 38.4288 35.8733 38.2515 36.8077 38.0562C38.2719 37.7454 38.1703 36.3888 37.6424 36.1417C33.3492 34.1416 34.2915 34.9564 33.4329 34.297C35.6163 31.7151 38.9035 29.0336 40.1904 20.3457C40.29 19.6544 40.2044 19.2201 40.1904 18.6623C40.1824 18.3236 40.2601 18.1901 40.6486 18.1523C41.7265 18.0405 42.772 17.719 43.7265 17.206C46.5076 15.686 47.6312 13.1917 47.8962 10.1995C47.936 9.74127 47.8882 9.27112 47.4041 9.03006ZM23.1652 35.9604C19.0035 32.6893 16.9854 31.6115 16.1527 31.6573C15.3717 31.7051 15.5132 32.5956 15.6845 33.1774C15.8638 33.7511 16.0969 34.1456 16.4236 34.6496C16.6507 34.9823 16.8061 35.4783 16.1985 35.8509C14.8578 36.6796 12.5289 35.572 12.4193 35.5182C9.70795 33.9204 7.43885 31.8127 5.8431 28.93C4.30115 26.1549 3.40467 23.1786 3.25724 20.001C3.2174 19.2321 3.44252 18.9611 4.20752 18.8217C5.2118 18.6295 6.2408 18.6032 7.25357 18.744C11.5009 19.3655 15.1147 21.2641 18.1469 24.2703C19.8761 25.9836 21.1849 28.0296 22.5337 30.0297C23.968 32.1534 25.51 34.1774 27.4743 35.8349C28.1676 36.4167 28.7194 36.8589 29.2493 37.1837C27.6516 37.3629 24.986 37.4028 23.1652 35.9604ZM25.1574 23.1308C25.157 23.0318 25.1808 22.9342 25.2266 22.8465C25.2724 22.7588 25.3388 22.6835 25.4202 22.6272C25.5016 22.5709 25.5955 22.5353 25.6937 22.5234C25.792 22.5115 25.8916 22.5238 25.9841 22.559C26.102 22.6013 26.2037 22.6793 26.2751 22.7821C26.3466 22.885 26.3841 23.0075 26.3826 23.1328C26.3828 23.2137 26.367 23.2938 26.336 23.3685C26.305 23.4432 26.2594 23.511 26.2019 23.5679C26.1444 23.6249 26.0762 23.6698 26.0012 23.7001C25.9262 23.7304 25.8459 23.7454 25.765 23.7444C25.6847 23.7446 25.6052 23.7289 25.531 23.6981C25.4569 23.6672 25.3897 23.6219 25.3333 23.5648C25.2769 23.5076 25.2325 23.4398 25.2026 23.3653C25.1727 23.2908 25.156 23.211 25.1574 23.1308ZM31.3531 26.3103C30.9546 26.4717 30.5582 26.6111 30.1777 26.629C29.6052 26.649 29.0435 26.4702 28.5879 26.123C28.042 25.6648 27.6516 25.4098 27.4882 24.6129C27.4319 24.2235 27.4427 23.8273 27.5201 23.4415C27.6595 22.7901 27.5042 22.3717 27.044 21.9932C26.6714 21.6824 26.1953 21.5968 25.6733 21.5968C25.4946 21.5864 25.3211 21.5331 25.1673 21.4414C25.1031 21.4123 25.0456 21.37 24.9988 21.3172C24.9519 21.2645 24.9166 21.2025 24.8952 21.1353C24.8738 21.0681 24.8667 20.9971 24.8745 20.927C24.8822 20.8568 24.9046 20.7891 24.9402 20.7282C24.996 20.6206 25.259 20.3576 25.3227 20.3098C26.0319 19.9074 26.8507 20.0389 27.6058 20.3417C28.307 20.6286 28.8369 21.1545 29.5999 21.8996C30.3789 22.7981 30.5203 23.0471 30.9646 23.7204C31.3152 24.2484 31.634 24.7903 31.8511 25.4098C31.9846 25.7983 31.8133 26.1151 31.3531 26.3103Z" fill="#4D6BFE"/>
</g>
<defs>
<clipPath id="clip0_9504_349">
<rect width="47.8125" height="47.8125" fill="white" transform="translate(0.09375 0.101562)"/>
</clipPath>
</defs>
</svg>
