<svg width="52" height="52" viewBox="0 0 52 52" fill="none" xmlns="http://www.w3.org/2000/svg">
<g clip-path="url(#clip0_9504_6320)">
<path d="M20.2571 32.0122L37.0355 19.5565C37.858 18.9459 39.0338 19.1841 39.4257 20.1325C41.4885 25.1347 40.5669 31.146 36.4627 35.2734C32.3586 39.4007 26.6481 40.3058 21.4285 38.2444L15.7266 40.8992C23.9048 46.5207 33.8357 45.1305 40.0415 38.8853C44.9639 33.9351 46.4884 27.1876 45.063 21.1027L45.0759 21.1156C43.0087 12.1767 45.5841 8.60368 50.8597 1.29747C50.9844 1.12424 51.1096 0.951004 51.2343 0.773438L44.2921 7.75483V7.7332L20.2528 32.0166" fill="black"/>
<path d="M16.7947 35.0419C10.9248 29.4031 11.9369 20.6763 16.9454 15.6439C20.6491 11.9193 26.7171 10.3991 32.0142 12.6339L37.7031 9.99205C36.6781 9.24714 35.3647 8.4459 33.8574 7.88291C27.0444 5.06347 18.8877 6.46668 13.3494 12.0319C8.02218 17.3892 6.34696 25.6266 9.22372 32.6556C11.3727 37.909 7.84993 41.6249 4.30132 45.3755C3.0438 46.7051 1.78198 48.0346 0.765625 49.4422L16.7904 35.0463" fill="black"/>
</g>
<defs>
<clipPath id="clip0_9504_6320">
<rect width="50.4688" height="50.4688" fill="white" transform="translate(0.765625 0.773438)"/>
</clipPath>
</defs>
</svg>
