<svg width="52" height="52" viewBox="0 0 52 52" fill="none" xmlns="http://www.w3.org/2000/svg">
<mask id="mask0_9504_4808" style="mask-type:alpha" maskUnits="userSpaceOnUse" x="9" y="2" width="41" height="41">
<path fill-rule="evenodd" clip-rule="evenodd" d="M21.1582 2.60156C27.7607 2.60156 33.113 7.87915 33.113 14.3896V18.8695H37.0918C43.6943 18.8695 49.0469 24.1474 49.0469 30.6576C49.0469 37.1677 43.6943 42.4453 37.0918 42.4453H9.20312V14.3896C9.20312 7.87915 14.5554 2.60156 21.1582 2.60156Z" fill="url(#paint0_linear_9504_4808)"/>
</mask>
<g mask="url(#mask0_9504_4808)">
<g filter="url(#filter0_f_9504_4808)">
<path d="M26.6821 50.3921C41.5779 50.3921 53.6533 38.5168 53.6533 23.8679C53.6533 9.21902 41.5779 -2.65625 26.6821 -2.65625C11.7863 -2.65625 -0.289062 9.21902 -0.289062 23.8679C-0.289062 38.5168 11.7863 50.3921 26.6821 50.3921Z" fill="#4B73FF"/>
</g>
<g filter="url(#filter1_f_9504_4808)">
<path d="M29.6363 35.8452C48.7136 35.8452 64.1788 23.9699 64.1788 9.32104C64.1788 -5.32785 48.7136 -17.2031 29.6363 -17.2031C10.559 -17.2031 -4.90625 -5.32785 -4.90625 9.32104C-4.90625 23.9699 10.559 35.8452 29.6363 35.8452Z" fill="#FF66F4"/>
</g>
<g filter="url(#filter2_f_9504_4808)">
<path d="M35.2759 27.6191C50.1716 27.6191 62.247 17.19 62.247 4.32516C62.247 -8.53971 50.1716 -18.9688 35.2759 -18.9688C20.3801 -18.9688 8.30469 -8.53971 8.30469 4.32516C8.30469 17.19 20.3801 27.6191 35.2759 27.6191Z" fill="#FF0105"/>
</g>
<g filter="url(#filter3_f_9504_4808)">
<path d="M30.1265 25.2549C39.0847 25.2549 46.3467 18.1131 46.3467 9.30324C46.3467 0.493373 39.0847 -6.64844 30.1265 -6.64844C21.1683 -6.64844 13.9062 0.493373 13.9062 9.30324C13.9062 18.1131 21.1683 25.2549 30.1265 25.2549Z" fill="#FE7B02"/>
</g>
</g>
<defs>
<filter id="filter0_f_9504_4808" x="-36.6771" y="-39.0443" width="126.721" height="125.823" filterUnits="userSpaceOnUse" color-interpolation-filters="sRGB">
<feFlood flood-opacity="0" result="BackgroundImageFix"/>
<feBlend mode="normal" in="SourceGraphic" in2="BackgroundImageFix" result="shape"/>
<feGaussianBlur stdDeviation="18.194" result="effect1_foregroundBlur_9504_4808"/>
</filter>
<filter id="filter1_f_9504_4808" x="-41.2943" y="-53.5911" width="141.862" height="125.823" filterUnits="userSpaceOnUse" color-interpolation-filters="sRGB">
<feFlood flood-opacity="0" result="BackgroundImageFix"/>
<feBlend mode="normal" in="SourceGraphic" in2="BackgroundImageFix" result="shape"/>
<feGaussianBlur stdDeviation="18.194" result="effect1_foregroundBlur_9504_4808"/>
</filter>
<filter id="filter2_f_9504_4808" x="-28.0833" y="-55.3568" width="126.721" height="119.362" filterUnits="userSpaceOnUse" color-interpolation-filters="sRGB">
<feFlood flood-opacity="0" result="BackgroundImageFix"/>
<feBlend mode="normal" in="SourceGraphic" in2="BackgroundImageFix" result="shape"/>
<feGaussianBlur stdDeviation="18.194" result="effect1_foregroundBlur_9504_4808"/>
</filter>
<filter id="filter3_f_9504_4808" x="-22.4818" y="-43.0364" width="105.214" height="104.682" filterUnits="userSpaceOnUse" color-interpolation-filters="sRGB">
<feFlood flood-opacity="0" result="BackgroundImageFix"/>
<feBlend mode="normal" in="SourceGraphic" in2="BackgroundImageFix" result="shape"/>
<feGaussianBlur stdDeviation="18.194" result="effect1_foregroundBlur_9504_4808"/>
</filter>
<linearGradient id="paint0_linear_9504_4808" x1="22.6113" y1="9.60339" x2="34.3965" y2="42.5571" gradientUnits="userSpaceOnUse">
<stop offset="0.025" stop-color="#FF8E63"/>
<stop offset="0.56" stop-color="#FF7EB0"/>
<stop offset="0.95" stop-color="#4B73FF"/>
</linearGradient>
</defs>
</svg>
