<svg width="26" height="33" viewBox="0 0 26 33" fill="none" xmlns="http://www.w3.org/2000/svg">
<path d="M12.2529 31.8203V23.8018L5.40527 30.6992C5.1912 30.9148 4.86783 30.98 4.58691 30.8643C4.30615 30.7484 4.12305 30.4746 4.12305 30.1709V22.9883H1.47656C1.06245 22.9883 0.726726 22.6524 0.726562 22.2383V10.5029C0.726656 10.0888 1.06241 9.75293 1.47656 9.75293H4.12305V2.59473C4.12305 2.29327 4.30334 2.02061 4.58105 1.90332C4.85867 1.78611 5.17944 1.8466 5.39551 2.05664L12.2529 8.72656V0.945312C12.2529 0.531198 12.5889 0.195474 13.0029 0.195312C13.4171 0.195312 13.7529 0.531099 13.7529 0.945312V8.72754L20.6104 2.05664C20.8264 1.84644 21.1481 1.78603 21.4258 1.90332C21.7034 2.02066 21.8838 2.29335 21.8838 2.59473V9.75293H24.5303C24.9443 9.75313 25.2802 10.0889 25.2803 10.5029V22.2383C25.2801 22.6522 24.9442 22.9881 24.5303 22.9883H21.8838V30.1709C21.8838 30.4747 21.6999 30.7485 21.4189 30.8643C21.1381 30.9799 20.8156 30.9148 20.6016 30.6992L13.7529 23.8018V31.8203C13.7529 32.2345 13.4171 32.5703 13.0029 32.5703C12.5889 32.5702 12.2529 32.2344 12.2529 31.8203ZM5.62305 19.0723V28.3506L12.2529 21.6729V12.335L5.62305 19.0723ZM13.7529 21.6729L20.3838 28.3506V19.0732L13.7529 12.334V21.6729ZM21.668 18.2393C21.806 18.3795 21.8838 18.5688 21.8838 18.7656V21.4883H23.7803V11.2529H14.793L21.668 18.2393ZM2.22656 21.4883H4.12305V18.7656C4.12307 18.5688 4.19987 18.3795 4.33789 18.2393L11.2139 11.2529H2.22656V21.4883ZM14.8506 9.75293H20.3838V4.36914L14.8506 9.75293ZM5.62305 9.75293H11.1562L5.62305 4.37012V9.75293Z" fill="#20808D"/>
</svg>
