<svg width="30" height="29" viewBox="0 0 30 29" fill="none" xmlns="http://www.w3.org/2000/svg">
<path fill-rule="evenodd" clip-rule="evenodd" d="M15.7178 1.94301C16.1845 2.76238 16.6488 3.58413 17.112 4.40707C17.1307 4.43998 17.1578 4.46733 17.1906 4.48632C17.2233 4.5053 17.2605 4.51525 17.2984 4.51513H23.8914C24.098 4.51513 24.2738 4.64576 24.421 4.90345L26.1476 7.95532C26.3733 8.35551 26.4326 8.52295 26.1761 8.94926C25.8674 9.45988 25.567 9.97526 25.2736 10.493L24.8378 11.2744C24.712 11.5071 24.573 11.6069 24.7903 11.8824L27.9396 17.3888C28.1438 17.7463 28.0714 17.9754 27.8885 18.3032C27.3696 19.2354 26.8411 20.1604 26.3032 21.0819C26.1144 21.4049 25.8852 21.5273 25.4957 21.5213C24.573 21.5023 23.6527 21.5094 22.7324 21.5403C22.7127 21.5413 22.6935 21.5473 22.6767 21.5577C22.6599 21.5681 22.646 21.5825 22.6362 21.5997C21.5744 23.481 20.5036 25.3573 19.424 27.2284C19.2233 27.5764 18.9728 27.6595 18.5631 27.6607C17.3791 27.6643 16.1857 27.6655 14.9804 27.6631C14.8682 27.6628 14.758 27.6328 14.6611 27.5763C14.5641 27.5198 14.4838 27.4387 14.4282 27.3413L12.8429 24.5827C12.8337 24.5647 12.8195 24.5496 12.8021 24.5393C12.7846 24.529 12.7646 24.5239 12.7443 24.5245H6.6667C6.32827 24.5601 6.01002 24.5233 5.71077 24.4153L3.8072 21.1259C3.75091 21.0285 3.72107 20.9181 3.72065 20.8056C3.72024 20.6931 3.74926 20.5824 3.80483 20.4846L5.23814 17.9671C5.25856 17.9315 5.2693 17.8912 5.2693 17.8502C5.2693 17.8091 5.25856 17.7688 5.23814 17.7332C4.49152 16.4406 3.74933 15.1454 3.01158 13.8477L2.07345 12.1911C1.88345 11.823 1.86802 11.6021 2.18627 11.0452C2.73845 10.0798 3.28708 9.11551 3.83333 8.15245C3.99008 7.87457 4.19433 7.75582 4.52683 7.75463C5.55164 7.75032 6.57646 7.74992 7.60127 7.75345C7.62715 7.75325 7.65253 7.74623 7.67484 7.73309C7.69714 7.71996 7.7156 7.70117 7.72833 7.67863L11.0605 1.86582C11.111 1.77739 11.1839 1.70383 11.2718 1.65255C11.3598 1.60126 11.4597 1.57407 11.5616 1.5737C12.1838 1.57251 12.812 1.5737 13.4414 1.56657L14.6491 1.53926C15.054 1.5357 15.5088 1.57726 15.7178 1.94301ZM11.6423 2.42157C11.6298 2.42156 11.6175 2.42485 11.6067 2.43111C11.5958 2.43736 11.5868 2.44636 11.5806 2.4572L8.1772 8.41251C8.16086 8.44057 8.13748 8.46388 8.10936 8.48013C8.08124 8.49637 8.04937 8.50499 8.01689 8.50514H4.61352C4.54702 8.50514 4.53039 8.53482 4.56483 8.59301L11.4642 20.6533C11.4939 20.7031 11.4796 20.7269 11.4238 20.7281L8.10477 20.7459C8.05625 20.7443 8.00825 20.7563 7.96625 20.7807C7.92425 20.805 7.88996 20.8407 7.86727 20.8836L6.29977 23.6268C6.24752 23.7194 6.27483 23.7669 6.38052 23.7669L13.1683 23.7764C13.2229 23.7764 13.2633 23.8001 13.2918 23.8488L14.9578 26.7629C15.0125 26.8591 15.0671 26.8603 15.1229 26.7629L21.0675 16.3604L21.9973 14.7193C22.003 14.7092 22.0113 14.7007 22.0213 14.6949C22.0313 14.689 22.0427 14.6859 22.0543 14.6859C22.0659 14.6859 22.0774 14.689 22.0874 14.6949C22.0974 14.7007 22.1057 14.7092 22.1113 14.7193L23.8023 17.7237C23.815 17.7462 23.8335 17.7649 23.8558 17.7778C23.8782 17.7907 23.9036 17.7975 23.9294 17.7973L27.2105 17.7736C27.2189 17.7736 27.2271 17.7715 27.2344 17.7673C27.2417 17.7631 27.2478 17.7571 27.252 17.7498C27.2561 17.7426 27.2582 17.7344 27.2582 17.7261C27.2582 17.7178 27.2561 17.7096 27.252 17.7023L23.8083 11.6627C23.7959 11.6425 23.7893 11.6193 23.7893 11.5956C23.7893 11.5719 23.7959 11.5487 23.8083 11.5285L24.1562 10.9264L25.4862 8.57876C25.5147 8.53007 25.5005 8.50514 25.4446 8.50514H11.6756C11.6055 8.50514 11.5889 8.47426 11.6245 8.4137L13.3274 5.43901C13.3402 5.41874 13.3469 5.39527 13.3469 5.37132C13.3469 5.34737 13.3402 5.3239 13.3274 5.30363L11.7053 2.45838C11.6991 2.44715 11.6899 2.4378 11.6789 2.43132C11.6678 2.42484 11.6552 2.42147 11.6423 2.42157ZM19.1117 11.9453C19.1663 11.9453 19.1806 11.9691 19.1521 12.0166L18.1641 13.7563L15.0611 19.2009C15.0553 19.2115 15.0467 19.2204 15.0362 19.2264C15.0258 19.2325 15.0139 19.2356 15.0018 19.2354C14.9897 19.2353 14.9779 19.2321 14.9675 19.2261C14.9571 19.22 14.9484 19.2114 14.9424 19.2009L10.842 12.0379C10.8182 11.9976 10.8301 11.9762 10.8752 11.9738L11.1317 11.9596L19.1141 11.9453H19.1117Z" fill="black"/>
</svg>
