<svg width="36" height="37" viewBox="0 0 36 37" fill="none" xmlns="http://www.w3.org/2000/svg">
<path d="M27.9463 7.62242C30.6979 7.44158 32.7532 8.04189 33.5954 9.49999C35.5614 12.9037 30.1728 19.6923 21.5597 24.6629C16.6364 27.5041 11.7253 29.1362 8.0538 29.3776M27.9463 7.62242C27.9463 8.09441 27.5636 8.47708 27.0913 8.47708C26.6191 8.47708 26.2363 8.09441 26.2363 7.62242C26.2363 7.15038 26.6191 6.76775 27.0913 6.76775C27.5636 6.76775 27.9463 7.15038 27.9463 7.62242ZM26.2606 7.8256C22.8432 8.37889 18.634 9.91696 14.4403 12.3371C5.8272 17.3077 0.438653 24.0963 2.40463 27.5C3.0615 28.6372 4.45625 29.2527 6.34374 29.3827M8.05379 7.62242C11.7253 7.86372 16.6364 9.4959 21.5597 12.3371C30.1728 17.3077 35.5613 24.0963 33.5954 27.5C32.7531 28.9581 30.6979 29.5584 27.9463 29.3776M8.05379 7.62242C8.05379 8.09441 7.67098 8.47708 7.19875 8.47708C6.72654 8.47708 6.34373 8.09441 6.34373 7.62242C6.34373 7.15038 6.72654 6.76776 7.19875 6.76776C7.67098 6.76776 8.05379 7.15038 8.05379 7.62242ZM27.9463 29.3776C27.9463 29.8496 27.5635 30.2323 27.0913 30.2323C26.6191 30.2323 26.2363 29.8496 26.2363 29.3776C26.2363 28.9056 26.6191 28.5229 27.0913 28.5229C27.5635 28.5229 27.9463 28.9056 27.9463 29.3776ZM6.34373 7.61731C4.45623 7.74736 3.06148 8.36277 2.40462 9.49999C0.438634 12.9037 5.82718 19.6923 14.4403 24.6629C18.6411 27.0871 22.838 28.6315 26.2587 29.1823M8.0538 29.3663C8.0538 29.8383 7.67099 30.2209 7.19877 30.2209C6.72656 30.2209 6.34374 29.8383 6.34374 29.3663C6.34374 28.8943 6.72656 28.5116 7.19877 28.5116C7.67099 28.5116 8.0538 28.8943 8.0538 29.3663ZM25.1195 18.5C25.1195 28.4411 21.932 36.5 18.0001 36.5C14.0681 36.5 10.8807 28.4411 10.8807 18.5C10.8807 8.5589 14.0681 0.5 18.0001 0.5C21.932 0.5 25.1195 8.5589 25.1195 18.5ZM22.502 18.5C22.502 20.9853 20.4864 23 18 23C15.5136 23 13.498 20.9853 13.498 18.5C13.498 16.0147 15.5136 14 18 14C20.4864 14 22.502 16.0147 22.502 18.5Z" stroke="white" stroke-opacity="0.6" stroke-linecap="round" stroke-linejoin="round"/>
</svg>
