<svg width="30" height="28" viewBox="0 0 30 28" fill="none" xmlns="http://www.w3.org/2000/svg">
<g clip-path="url(#clip0_9499_4239)">
<path d="M21.8203 0.078125H27.2749V5.50926H21.8203V0.078125Z" fill="black"/>
<path d="M24.5469 0.078125H30.0014V5.50926H24.5469V0.078125Z" fill="#F7D046"/>
<path d="M0 0.078125H5.45454V5.50926H0V0.078125ZM0 5.50926H5.45454V10.9404H0V5.50926ZM0 10.9404H5.45454V16.3715H0V10.9404ZM0 16.3715H5.45454V21.8027H0V16.3715ZM0 21.8027H5.45454V27.2338H0V21.8027Z" fill="black"/>
<path d="M2.72656 0.078125H8.18111V5.50926H2.72656V0.078125Z" fill="#F7D046"/>
<path d="M24.5447 5.50781H29.9993V10.9389H24.5447V5.50781ZM2.72656 5.50781H8.18111V10.9389H2.72656V5.50781Z" fill="#F2A73B"/>
<path d="M16.3672 5.50781H21.8217V10.9389H16.3672V5.50781Z" fill="black"/>
<path d="M19.0888 5.50781H24.5433V10.9389H19.0888V5.50781ZM8.17969 5.50781H13.6342V10.9389H8.17969V5.50781Z" fill="#F2A73B"/>
<path d="M13.6342 10.9375H19.0888V16.3686H13.6342V10.9375ZM19.0888 10.9375H24.5433V16.3686H19.0888V10.9375ZM8.17969 10.9375H13.6342V16.3686H8.17969V10.9375Z" fill="#EE792F"/>
<path d="M10.9062 16.375H16.3608V21.8061H10.9062V16.375Z" fill="black"/>
<path d="M13.6328 16.375H19.0874V21.8061H13.6328V16.375Z" fill="#EB5829"/>
<path d="M24.5447 10.9375H29.9993V16.3686H24.5447V10.9375ZM2.72656 10.9375H8.18111V16.3686H2.72656V10.9375Z" fill="#EE792F"/>
<path d="M21.8203 16.375H27.2749V21.8061H21.8203V16.375Z" fill="black"/>
<path d="M24.5469 16.375H30.0014V21.8061H24.5469V16.375Z" fill="#EB5829"/>
<path d="M21.8203 21.8047H27.2749V27.2358H21.8203V21.8047Z" fill="black"/>
<path d="M2.72656 16.375H8.18111V21.8061H2.72656V16.375Z" fill="#EB5829"/>
<path d="M24.5447 21.8047H29.9993V27.2358H24.5447V21.8047ZM2.72656 21.8047H8.18111V27.2358H2.72656V21.8047Z" fill="#EA3326"/>
</g>
<defs>
<clipPath id="clip0_9499_4239">
<rect width="30" height="27.1875" fill="white" transform="translate(0 0.078125)"/>
</clipPath>
</defs>
</svg>
