<svg width="50" height="52" viewBox="0 0 50 52" fill="none" xmlns="http://www.w3.org/2000/svg">
<g clip-path="url(#clip0_9504_4797)">
<path d="M46.3424 21.3882C46.8994 19.6919 47.0921 17.895 46.9075 16.1174C46.7229 14.3399 46.1654 12.6226 45.2721 11.0803C42.5548 6.29726 37.0932 3.83691 31.7594 4.99303C30.2825 3.33181 28.3994 2.09279 26.2991 1.40041C24.1989 0.708028 21.9555 0.586657 19.7941 1.04849C17.6328 1.51032 15.6297 2.53909 13.986 4.03149C12.3423 5.52389 11.1159 7.42736 10.4298 9.55075C8.69796 9.90987 7.06183 10.6387 5.6308 11.6884C4.19976 12.7382 3.00679 14.0847 2.1316 15.6381C-0.61528 20.4136 0.00838393 26.4372 3.67358 30.5341C3.1145 32.2295 2.9199 34.0262 3.1028 35.8038C3.2857 37.5814 3.84188 39.299 4.73414 40.8418C7.45492 45.6266 12.9199 48.0868 18.2566 46.9291C19.43 48.2652 20.8717 49.3328 22.4856 50.0606C24.0994 50.7885 25.8482 51.1598 27.6152 51.1498C33.0823 51.1547 37.9259 47.5858 39.596 42.3215C41.3276 41.9617 42.9634 41.2327 44.3943 40.183C45.8252 39.1333 47.0183 37.7871 47.894 36.2342C50.6077 31.4672 49.9815 25.4762 46.3424 21.3882ZM27.6152 47.8528C25.433 47.8564 23.3192 47.0829 21.6445 45.6681L21.9391 45.4993L31.8575 39.7099C32.1043 39.5635 32.3093 39.3547 32.4522 39.104C32.5951 38.8533 32.6711 38.5693 32.6727 38.2799V24.1389L36.866 26.5917C36.9078 26.6133 36.937 26.6538 36.9445 26.701V38.4189C36.9337 43.6245 32.7631 47.842 27.6152 47.8528ZM7.56241 39.1936C6.46802 37.2827 6.07508 35.0427 6.45272 32.8677L6.74718 33.0465L16.6755 38.836C16.9212 38.9818 17.2008 39.0587 17.4856 39.0587C17.7705 39.0587 18.0501 38.9818 18.2958 38.836L30.4237 31.7655V36.6612C30.4226 36.6866 30.4158 36.7113 30.404 36.7337C30.3921 36.756 30.3753 36.7754 30.355 36.7903L20.309 42.6493C15.8447 45.25 10.1411 43.7035 7.56241 39.1936ZM4.95009 17.3462C6.05208 15.423 7.79147 13.9561 9.86031 13.2053V25.1217C9.85657 25.4096 9.92932 25.6933 10.071 25.9431C10.2126 26.1929 10.4179 26.3997 10.6656 26.5418L22.7346 33.5826L18.5413 36.0354C18.5186 36.0475 18.4934 36.0539 18.4677 36.0539C18.442 36.0539 18.4168 36.0475 18.3941 36.0354L8.36766 30.1866C3.91218 27.5751 2.38422 21.8119 4.95009 17.2967V17.3462ZM39.3996 25.4397L27.291 18.3294L31.4747 15.8865C31.4974 15.8743 31.5227 15.868 31.5484 15.868C31.5741 15.868 31.5994 15.8743 31.6221 15.8865L41.6485 21.7456C43.1816 22.6401 44.4313 23.9571 45.2519 25.5429C46.0725 27.1287 46.4301 28.9179 46.2828 30.7015C46.1356 32.4851 45.4896 34.1895 44.4204 35.6158C43.3511 37.0421 41.9027 38.1314 40.2442 38.7564V26.8398C40.2355 26.5524 40.1531 26.2722 40.005 26.0268C39.8569 25.7813 39.6483 25.579 39.3996 25.4397ZM43.5731 19.0942L43.2784 18.9152L33.3699 13.0762C33.1227 12.9295 32.8414 12.8522 32.5548 12.8522C32.2683 12.8522 31.9869 12.9295 31.7398 13.0762L19.6214 20.1469V15.2512C19.6189 15.2263 19.623 15.2012 19.6334 15.1785C19.6437 15.1557 19.66 15.1363 19.6804 15.1221L29.7068 9.27298C31.2435 8.3778 33.0004 7.94356 34.7722 8.02106C36.544 8.09856 38.2573 8.6846 39.7118 9.71062C41.1662 10.7366 42.3018 12.1602 42.9855 13.8149C43.6693 15.4696 43.873 17.2869 43.5729 19.0544V19.0942H43.5731ZM17.3335 27.7733L13.1403 25.3304C13.1193 25.3176 13.1014 25.3003 13.0878 25.2797C13.0742 25.2591 13.0652 25.2357 13.0616 25.2112V13.5232C13.0639 11.7302 13.5709 9.9749 14.5234 8.46254C15.4759 6.95018 16.8345 5.74327 18.4403 4.98292C20.0461 4.22257 21.8327 3.9402 23.5914 4.16883C25.35 4.39745 27.008 5.12762 28.3714 6.27397L28.0767 6.44285L18.1584 12.2322C17.9115 12.3786 17.7066 12.5874 17.5637 12.8381C17.4208 13.0889 17.3449 13.3728 17.3433 13.6622L17.3335 27.7735V27.7733ZM19.6117 22.8079L25.0129 19.66L30.4237 22.8081V29.1039L25.0325 32.252L19.6216 29.1039L19.6117 22.8079Z" fill="black"/>
</g>
<defs>
<clipPath id="clip0_9504_4797">
<rect width="49.1406" height="50.4688" fill="white" transform="translate(0.429688 0.773438)"/>
</clipPath>
</defs>
</svg>
