<svg width="52" height="52" viewBox="0 0 52 52" fill="none" xmlns="http://www.w3.org/2000/svg">
<path fill-rule="evenodd" clip-rule="evenodd" d="M35.915 44.5788C31.4095 44.9906 27.6421 39.7111 24.7546 37.0333C23.2944 47.5549 7.39536 46.5575 7.40626 35.8845C7.41149 31.4014 7.40626 20.4467 7.40626 16.1047C7.40626 14.5435 7.83471 12.9714 8.63845 11.6383C10.1637 9.05268 13.1111 7.38324 16.1127 7.41549C20.6343 7.42123 31.5235 7.41034 35.915 7.41549C46.598 7.41549 47.6126 23.3088 37.055 24.7398L42.0649 29.7429C47.5693 34.9193 43.4381 44.8064 35.915 44.5788ZM33.4886 38.318C36.5932 41.5164 41.5495 36.5617 38.3522 33.4613L29.6671 24.7887H24.8087V29.645L32.3163 37.1421L33.4886 38.318ZM12.666 35.8896C12.5953 40.3347 19.614 40.3509 19.5438 35.8896V16.1047C19.6031 13.8876 17.2585 12.1261 15.1413 12.809C15.0492 12.8361 14.9623 12.8632 14.8806 12.896C13.551 13.3889 12.628 14.7497 12.666 16.1698V35.8896ZM35.915 19.5357C40.3767 19.6065 40.3715 12.5977 35.915 12.668H24.1195C25.0154 14.5545 24.7874 17.4925 24.8035 19.5357H35.915Z" fill="black"/>
</svg>
